<svg width="126" height="26" viewBox="0 0 126 26" fill="none" xmlns="http://www.w3.org/2000/svg">
<path d="M40.4605 20.7069C39.8304 20.7411 39.2072 20.5619 38.6914 20.1984C38.2539 19.8741 38.0043 19.355 38.0241 18.8107V8.99081C38.0136 8.90657 38.0426 8.82222 38.1026 8.76219C38.1627 8.70216 38.247 8.67317 38.3313 8.68361H40.1109C40.3122 8.68361 40.4075 8.78954 40.4075 8.99081V18.048C40.4075 18.4506 40.5876 18.6518 40.9584 18.6518C41.1156 18.6583 41.2728 18.6404 41.4245 18.5989C41.6364 18.5989 41.7529 18.6624 41.7635 18.8531L41.9224 20.1773C41.9378 20.2554 41.9187 20.3363 41.87 20.3993C41.8212 20.4622 41.7476 20.501 41.6681 20.5056C41.2783 20.6344 40.871 20.7023 40.4605 20.7069Z" fill="black"/>
<path fill-rule="evenodd" clip-rule="evenodd" d="M44.1152 19.5735C45.9598 21.0975 48.6266 21.0975 50.4712 19.5735V19.5629C52.0666 17.8991 52.0666 15.2733 50.4712 13.6095C48.6236 12.0938 45.9628 12.0938 44.1152 13.6095C42.4793 15.2609 42.4793 17.922 44.1152 19.5735ZM48.8186 18.1752C47.9588 18.954 46.6487 18.954 45.7889 18.1752C45.0123 17.2823 45.0123 15.9537 45.7889 15.0608C46.6487 14.282 47.9588 14.282 48.8186 15.0608C49.5952 15.9537 49.5952 17.2823 48.8186 18.1752Z" fill="black"/>
<path fill-rule="evenodd" clip-rule="evenodd" d="M61.7635 13.0481C61.7635 12.8468 61.6681 12.7408 61.4669 12.7408L59.7084 12.7514C59.6259 12.7445 59.5446 12.775 59.4871 12.8346C59.4296 12.8942 59.4019 12.9764 59.4118 13.0586V13.2281C58.7653 12.7337 57.969 12.4757 57.1554 12.4972C56.0394 12.4574 54.9545 12.8699 54.1469 13.6413C52.5594 15.2836 52.5594 17.8887 54.1469 19.5311C54.9508 20.3094 56.0372 20.7264 57.1554 20.6858C57.9461 20.7082 58.7216 20.4659 59.3588 19.9972V20.6646C59.3804 21.1554 59.2006 21.6337 58.8609 21.9887C58.4893 22.3279 57.9968 22.5035 57.4944 22.476C57.0822 22.4843 56.6744 22.3896 56.308 22.2006C56.0073 22.038 55.7772 21.7702 55.6618 21.4485C55.6034 21.3055 55.4665 21.2101 55.3122 21.2048H53.5325C53.2465 21.2048 53.2465 21.3002 53.2465 21.512C53.3955 22.38 53.8981 23.1473 54.6342 23.6307C55.4871 24.1835 56.4892 24.4609 57.505 24.4252C58.6295 24.4747 59.7311 24.0962 60.5876 23.3658C61.3691 22.6814 61.8009 21.6815 61.7635 20.6434V13.0481ZM58.808 18.1751C58.4408 18.5883 57.9092 18.8172 57.3567 18.8001C56.7983 18.8163 56.2606 18.588 55.8843 18.1751C55.5043 17.7389 55.3037 17.1749 55.3228 16.5967C55.2995 16.0128 55.5047 15.4428 55.8948 15.0078C56.2703 14.5937 56.8086 14.3652 57.3673 14.3828C57.9147 14.3647 58.4421 14.5896 58.808 14.9972C59.5324 15.9327 59.5324 17.2397 58.808 18.1751Z" fill="black"/>
<path fill-rule="evenodd" clip-rule="evenodd" d="M64.5495 19.5735C66.3971 21.0892 69.0579 21.0892 70.9054 19.5735V19.5629C72.5008 17.8991 72.5008 15.2733 70.9054 13.6095C69.0564 12.0979 66.3985 12.0979 64.5495 13.6095C62.9527 15.2769 62.9527 17.9061 64.5495 19.5735ZM67.7381 18.7578C67.1722 18.7752 66.6229 18.5654 66.2126 18.1752C65.4496 17.2772 65.4496 15.9587 66.2126 15.0608C66.6229 14.6705 67.1722 14.4607 67.7381 14.4781C68.3003 14.4636 68.8453 14.6732 69.2529 15.0608C70.016 15.9587 70.016 17.2772 69.2529 18.1752C68.8453 18.5627 68.3003 18.7724 67.7381 18.7578Z" fill="black"/>
<path fill-rule="evenodd" clip-rule="evenodd" d="M73.9033 10.94C74.4824 11.4469 75.3474 11.4469 75.9266 10.94C76.1832 10.6978 76.3286 10.3606 76.3286 10.0078C76.3286 9.65496 76.1832 9.31774 75.9266 9.07558C75.3424 8.58215 74.4874 8.58215 73.9033 9.07558C73.6467 9.31774 73.5012 9.65496 73.5012 10.0078C73.5012 10.3606 73.6467 10.6978 73.9033 10.94ZM74.38 20.1985C74.8972 20.559 75.5193 20.7378 76.149 20.7069C76.5631 20.7031 76.974 20.6352 77.3673 20.5057C77.4467 20.501 77.5203 20.4623 77.5691 20.3993C77.6178 20.3364 77.6369 20.2554 77.6215 20.1773L77.4626 18.8531C77.452 18.6624 77.3355 18.5989 77.1236 18.5989C76.9682 18.6398 76.8075 18.6576 76.6469 18.6518C76.2867 18.6518 76.1067 18.4506 76.1067 18.048V13.048C76.1067 12.8468 76.0113 12.7408 75.81 12.7408H74.0304C73.9461 12.7304 73.8618 12.7594 73.8018 12.8194C73.7417 12.8794 73.7127 12.9638 73.7232 13.048V18.8107C73.7045 19.3524 73.9493 19.8695 74.38 20.1985Z" fill="black"/>
<path fill-rule="evenodd" clip-rule="evenodd" d="M87.1977 13.6307C86.3843 12.855 85.2912 12.4422 84.1681 12.4866C83.1874 12.4653 82.2412 12.8484 81.5516 13.5459C81.1879 12.8352 80.4294 12.4162 79.6342 12.4866C79.2444 12.4795 78.8565 12.5441 78.4901 12.6773C78.3367 12.7218 78.2351 12.8675 78.2465 13.0269V14.2769C78.2465 14.4464 78.363 14.5311 78.596 14.5311H78.9456C79.1179 14.5058 79.292 14.5635 79.4151 14.6866C79.5382 14.8097 79.5959 14.9838 79.5706 15.1561V23.8425C79.5552 23.925 79.5815 24.0097 79.6408 24.069C79.7001 24.1283 79.7848 24.1546 79.8672 24.1392H81.6469C81.8482 24.1392 81.9541 24.0438 81.9541 23.8425V20.0184C82.5974 20.4828 83.3748 20.7246 84.1681 20.707C85.2933 20.7522 86.3881 20.335 87.1977 19.5523C88.7519 17.8843 88.7519 15.2986 87.1977 13.6307ZM83.9774 18.7997C83.4253 18.7997 82.8972 18.5741 82.5156 18.1752C82.1329 17.7238 81.9326 17.1458 81.9541 16.5544C81.9295 15.9626 82.1301 15.3834 82.5156 14.9337C82.8972 14.5348 83.4253 14.3092 83.9774 14.3092C84.5295 14.3092 85.0576 14.5348 85.4393 14.9337C85.8402 15.3756 86.0496 15.9584 86.0219 16.5544C86.0462 17.1499 85.8372 17.7314 85.4393 18.1752C85.0576 18.5741 84.5295 18.7997 83.9774 18.7997Z" fill="black"/>
<path d="M93.363 20.7069C92.4121 20.746 91.4691 20.5185 90.6406 20.0501C89.9671 19.6445 89.5149 18.9545 89.4117 18.1751C89.4117 17.9633 89.4859 17.8573 89.7189 17.8573H91.2762C91.4272 17.8632 91.5622 17.9532 91.6257 18.0904C91.8482 18.6624 92.4308 18.9484 93.363 18.9484C93.6882 18.9633 94.012 18.8978 94.3058 18.7578C94.5124 18.6644 94.6509 18.4649 94.666 18.2387C94.666 17.9633 94.4965 17.7726 94.1575 17.6455C93.7554 17.5116 93.3398 17.4228 92.9181 17.3806C92.4186 17.3241 91.9232 17.2356 91.435 17.1158C90.9603 17.0084 90.5286 16.7611 90.1956 16.4061C89.7993 15.9182 89.6233 15.2877 89.7096 14.6651C89.796 14.0425 90.137 13.4837 90.6511 13.1222C91.4147 12.6358 92.3106 12.3988 93.2147 12.4442C94.0901 12.4146 94.9562 12.6311 95.7147 13.0692C96.3338 13.4198 96.7618 14.0308 96.88 14.7323C96.88 14.9442 96.7846 15.0501 96.5939 15.0501H95.0262C94.891 15.0581 94.7649 14.9824 94.7084 14.8595C94.6036 14.6086 94.4064 14.4075 94.1575 14.298C93.8768 14.1511 93.5632 14.0782 93.2465 14.0862C92.936 14.0693 92.6262 14.1312 92.3461 14.2662C92.1441 14.3441 92.0099 14.5371 92.0071 14.7535C92.021 15.0509 92.2272 15.3044 92.5156 15.3785C92.9224 15.5318 93.3453 15.6385 93.7762 15.6963C94.2716 15.7615 94.7631 15.8535 95.2486 15.9717C95.7234 16.0792 96.1551 16.3264 96.488 16.6815C96.8478 17.0766 97.0347 17.5991 97.0071 18.1328C97.0257 18.8777 96.6516 19.5776 96.0219 19.976C95.2304 20.4841 94.303 20.739 93.363 20.7069Z" fill="black"/>
<path d="M108.204 20.1773C108.216 20.2533 108.197 20.3309 108.151 20.3927C108.106 20.4545 108.037 20.4952 107.96 20.5057C107.574 20.6319 107.17 20.6998 106.763 20.7069C105.945 20.7917 105.141 20.4422 104.645 19.7853C103.897 20.4287 102.929 20.7588 101.944 20.7069C101.018 20.7496 100.118 20.3995 99.4647 19.743C98.8164 19.0556 98.476 18.1338 98.5219 17.19V13.048C98.5219 12.8468 98.6173 12.7408 98.8185 12.7408H100.598C100.799 12.7408 100.895 12.8468 100.895 13.048V16.8722C100.875 17.3486 101.038 17.8146 101.35 18.1752C101.665 18.5094 102.11 18.6909 102.569 18.673C103.038 18.6936 103.495 18.5258 103.84 18.2069C104.166 17.8707 104.339 17.4144 104.316 16.9464V13.048C104.316 12.8468 104.412 12.7408 104.613 12.7408H106.414C106.615 12.7408 106.71 12.8468 106.71 13.048V18.0375C106.71 18.4506 106.891 18.6519 107.24 18.6519C107.404 18.6582 107.568 18.6404 107.727 18.5989C107.809 18.5761 107.896 18.5918 107.964 18.6413C108.032 18.6909 108.074 18.7689 108.077 18.8531L108.204 20.1773Z" fill="black"/>
<path d="M125.037 20.1773C125.056 20.2541 125.04 20.3354 124.992 20.399C124.945 20.4626 124.872 20.5017 124.793 20.5057C124.399 20.6337 123.989 20.7016 123.575 20.707C122.945 20.7395 122.322 20.5605 121.806 20.1985C121.352 19.8835 121.086 19.3629 121.096 18.8108V16.3214C121.118 15.8463 120.959 15.3806 120.651 15.0184C120.35 14.6831 119.915 14.5004 119.465 14.5205C119.059 14.5052 118.668 14.677 118.405 14.9866C118.126 15.3416 117.983 15.7852 118.003 16.2366V20.1455C118.003 20.3468 117.908 20.4527 117.706 20.4527H115.916C115.832 20.4632 115.747 20.4342 115.687 20.3741C115.627 20.3141 115.598 20.2298 115.609 20.1455V16.3214C115.632 15.8515 115.485 15.3891 115.196 15.0184C114.934 14.7032 114.546 14.5207 114.136 14.5205C113.699 14.5029 113.275 14.6724 112.971 14.9866C112.668 15.3303 112.512 15.7791 112.537 16.2366V20.1455C112.547 20.2298 112.518 20.3141 112.458 20.3741C112.398 20.4342 112.314 20.4632 112.23 20.4527H110.503C110.302 20.4527 110.206 20.3468 110.206 20.1455V15.1561C110.232 14.9838 110.174 14.8097 110.051 14.6866C109.928 14.5635 109.754 14.5058 109.581 14.5311H109.232C108.999 14.5311 108.882 14.4464 108.882 14.2769V13.0269C108.871 12.8675 108.972 12.7218 109.126 12.6773C109.492 12.5441 109.88 12.4795 110.27 12.4866C111.034 12.4216 111.767 12.8006 112.155 13.4612C112.878 12.7765 113.853 12.4234 114.846 12.4866C115.814 12.4394 116.747 12.8564 117.357 13.6095C118.067 12.8379 119.085 12.4258 120.132 12.4866C121.067 12.4429 121.977 12.7925 122.643 13.4506C123.293 14.1367 123.634 15.0594 123.585 16.0036V18.0481C123.585 18.4506 123.766 18.6519 124.105 18.6519C124.269 18.6595 124.433 18.6417 124.592 18.5989C124.811 18.5989 124.927 18.6837 124.941 18.8531L125.037 20.1773Z" fill="black"/>
<path fill-rule="evenodd" clip-rule="evenodd" d="M0.820719 11.3637C2.42886 4.90005 8.23314 0.362915 14.8938 0.362915C21.5545 0.362915 27.3588 4.90005 28.9669 11.3637H27.6957C25.5513 11.3321 23.4509 11.973 21.6894 13.1963C21.5877 13.2699 21.4816 13.3371 21.3716 13.3976H21.2233C21.1133 13.3371 21.0071 13.2699 20.9055 13.1963C17.2704 10.7519 12.5172 10.7519 8.88216 13.1963C8.7805 13.2699 8.67436 13.3371 8.56436 13.3976H8.41606C8.30606 13.3371 8.19992 13.2699 8.09826 13.1963C6.33675 11.973 4.23631 11.3321 2.09191 11.3637H0.820719ZM25.4075 18.0056C26.0601 17.4974 26.8689 17.2316 27.6957 17.2535H29.4012V13.8531H27.6957C26.2394 13.8355 24.8163 14.2888 23.6385 15.1455C22.2779 16.1485 20.4227 16.1485 19.0622 15.1455C16.5887 13.4236 13.3048 13.4236 10.8313 15.1455C9.47073 16.1485 7.61553 16.1485 6.255 15.1455C5.06262 14.2778 3.61919 13.824 2.14483 13.8531H0.386353V17.2535H2.09186C2.91867 17.2316 3.72744 17.4974 4.38 18.0056C6.84922 19.7288 10.1311 19.7288 12.6003 18.0056C13.2537 17.499 14.0619 17.2334 14.8885 17.2535C15.7155 17.2298 16.5249 17.4959 17.1766 18.0056C19.6501 19.7275 22.934 19.7275 25.4075 18.0056ZM27.6957 23.334C26.8689 23.3121 26.0601 23.5779 25.4075 24.0861C22.934 25.808 19.6501 25.808 17.1766 24.0861C16.5249 23.5763 15.7155 23.3103 14.8885 23.334C14.0619 23.3138 13.2537 23.5795 12.6003 24.0861C10.1311 25.8092 6.84922 25.8092 4.38 24.0861C3.72744 23.5779 2.91867 23.3121 2.09186 23.334H0.386353V19.9336H2.14483C3.61919 19.9044 5.06262 20.3583 6.255 21.226C7.61553 22.229 9.47073 22.229 10.8313 21.226C13.3048 19.5041 16.5887 19.5041 19.0622 21.226C20.4227 22.229 22.2779 22.229 23.6385 21.226C24.8163 20.3693 26.2394 19.916 27.6957 19.9336H29.4012V23.334H27.6957Z" fill="#FFD2DD"/>
</svg>
